<?xml version="1.0" encoding="UTF-8"?>
<svg width="24" height="24" viewBox="0 0 24 24" fill="none" xmlns="http://www.w3.org/2000/svg">
  <path d="M20 15C20 16.6569 18.6569 18 17 18H7C5.34315 18 4 16.6569 4 15C4 13.3431 5.34315 12 7 12C7 9.23858 9.23858 7 12 7C14.7614 7 17 9.23858 17 12C18.6569 12 20 13.3431 20 15Z" fill="#ADD8FB" stroke="#303030" stroke-width="2"/>
  <path d="M16 12C16 10.3431 14.6569 9 13 9H11C9.34315 9 8 10.3431 8 12C8 13.6569 9.34315 15 11 15H13C14.6569 15 16 13.6569 16 12Z" fill="#ADD8FB" stroke="#303030" stroke-width="2"/>
</svg> 