<?xml version="1.0" encoding="UTF-8"?>
<svg width="24" height="24" viewBox="0 0 24 24" fill="none" xmlns="http://www.w3.org/2000/svg">
  <circle cx="12" cy="12" r="5" fill="#FAC54B"/>
  <path d="M12 3V5M12 19V21M5 12H3M21 12H19M6.343 6.343L4.929 4.929M17.657 6.343L19.071 4.929M6.343 17.657L4.929 19.071M17.657 17.657L19.071 19.071" stroke="#303030" stroke-width="2" stroke-linecap="round"/>
  <path d="M20 15C20 16.6569 18.6569 18 17 18H7C5.34315 18 4 16.6569 4 15C4 13.3431 5.34315 12 7 12C7 9.23858 9.23858 7 12 7C14.7614 7 17 9.23858 17 12C18.6569 12 20 13.3431 20 15Z" fill="#ADD8FB" stroke="#303030" stroke-width="2"/>
</svg> 